<?xml version="1.0" encoding="UTF-8" standalone="no"?>
<!-- Created with Inkscape (http://www.inkscape.org/) -->

<svg
   width="129.04033mm"
   height="113.43305mm"
   viewBox="0 0 129.04033 113.43305"
   version="1.1"
   id="svg1"
   xml:space="preserve"
   xmlns="http://www.w3.org/2000/svg"
   xmlns:svg="http://www.w3.org/2000/svg"><defs
     id="defs1" /><g
     id="layer1"
     transform="translate(-65.53232,-62.803419)"><path
       style="fill:#717941;fill-opacity:1"
       d="m 110.49056,145.52878 c 0,-22.11159 -0.0576,-26.18319 -0.37869,-26.78906 -0.20827,-0.39296 -3.60156,-3.7494 -7.54062,-7.45876 -7.820212,-7.36416 -7.474712,-6.92396 -6.423052,-8.18368 0.88297,-1.05766 -0.17621,-1.49983 9.282022,3.87493 7.93245,4.50772 7.7252,4.41586 8.87715,3.93455 1.3361,-0.55826 1.33338,-0.54188 1.47485,-8.8888 l 0.1323,-7.805211 3.43958,0.04824 3.43958,0.04824 0.13229,18.385241 c 0.14952,20.77851 0.0247,19.75058 2.39806,19.75058 1.38745,0 1.15731,0.26435 10.71104,-12.30312 10.06462,-13.23953 9.346,-12.38828 10.26356,-12.15798 1.03296,0.25925 1.25096,-0.12484 -6.12231,10.7866 -3.75471,5.55644 -9.14229,13.55544 -11.9724,17.77554 l -5.14565,7.67292 -0.073,13.69219 -0.073,13.69218 h -6.21082 -6.21081 z m 34.19362,17.80637 0.0699,-8.26823 h 3.83646 3.83645 l 0.0699,8.26823 0.0699,8.26822 h -3.97628 -3.97629 z"
       id="path7" /><path
       style="fill:#ccd149;fill-opacity:1"
       d="m 102.41553,171.28657 c -0.0724,-0.18956 -0.10082,-9.19595 -0.0632,-20.0142 l 0.0684,-19.66955 1.52297,-0.6196 1.52297,-0.61959 -0.0678,20.55373 -0.0678,20.55372 -1.39202,0.0801 c -0.96053,0.0553 -1.43281,-0.0268 -1.52363,-0.26459 z m 25.71392,0.14042 c -0.097,-0.097 -0.17639,-5.92352 -0.17639,-12.9478 v -12.7714 l 4.55353,-6.76366 4.55353,-6.76367 h 18.46691 18.46692 l -0.0678,19.64531 -0.0678,19.64531 h -8.06979 -8.06979 l -0.13229,-10.01121 c -0.16726,-12.65752 0.89256,-11.28774 -8.73356,-11.28774 -10.09563,0 -9.10226,-1.24932 -9.204,11.57552 l -0.0782,9.85572 h -5.6324 c -3.09782,0 -5.71178,-0.0794 -5.80879,-0.17638 z m 20.99027,-44.42458 c 0,-0.083 0.4629,-0.70811 1.02867,-1.38907 0.56577,-0.68095 1.22993,-1.63714 1.47591,-2.12487 0.38293,-0.75928 0.54888,-0.86432 1.15414,-0.73053 8.17363,1.80666 16.52464,-2.28744 19.511,-9.56531 0.24466,-0.59625 13.87195,12.83748 13.87195,13.6749 0,0.20202 -5.43163,0.28585 -18.52083,0.28585 -10.18646,0 -18.52084,-0.0679 -18.52084,-0.15097 z"
       id="path6" /><path
       style="fill:#609e46;fill-opacity:1"
       d="m 96.043328,126.53075 c -1.34966,-0.44379 -3.21462,-1.71 -4.24194,-2.88005 -1.74544,-1.98794 -2.35218,-2.12537 -4.86878,-1.10278 -3.852196,1.56528 -5.551805,0.52345 -6.299016,-3.86121 -0.313572,-1.84005 -1.329581,-3.175 -2.41645,-3.175 -3.347804,0 -6.949794,-3.7728 -7.696664,-8.06165 -1.332552,-7.652077 2.756225,-14.586303 9.656533,-16.376671 2.394738,-0.621344 2.779899,-1.153761 3.072576,-4.247287 0.628069,-6.638549 4.293831,-9.56578 11.738511,-9.373581 2.48505,0.06416 3.03921,-0.278497 4.12299,-2.549347 2.603182,-5.45449 7.657902,-7.570644 13.628432,-5.705532 4.09101,1.277977 3.57089,1.250038 5.92836,0.31845 9.62078,-3.801782 16.42191,-1.420246 18.52609,6.487239 0.68505,2.574408 2.93849,3.141994 5.10642,1.28618 4.23995,-3.629528 7.63981,-3.641822 11.14681,-0.04031 2.34461,2.407784 1.72635,2.236657 6.78502,1.878014 9.39815,-0.666297 14.05737,10.727848 7.44545,18.207898 -1.63326,1.8477 -1.83946,2.517011 -1.27116,4.126157 1.23112,3.48598 1.5912,7.75251 0.85947,10.18386 -1.43914,4.78193 -8.7237,7.57195 -14.69077,5.62664 -2.89477,-0.94372 -3.76962,-0.55909 -4.76215,2.0937 -0.96865,2.58894 -2.61679,4.53002 -4.62221,5.44375 -1.30503,0.59461 -0.97093,-0.0159 4.20615,-7.68556 5.19574,-7.69737 5.19574,-7.69737 6.5131,-7.69737 3.2504,0 6.58088,-1.09086 7.24369,-2.37259 1.22109,-2.36134 -0.81906,-4.30752 -3.69969,-3.52927 -5.13658,1.38773 -10.38895,0.15677 -13.71667,-3.21467 -4.08509,-4.138763 -7.95887,-0.688307 -3.99038,3.55432 0.78958,0.84413 1.14638,1.4234 1.01408,1.64635 -0.2931,0.49393 -12.00818,15.87756 -12.44655,16.34416 -0.31209,0.33218 -0.35606,-1.71367 -0.2977,-13.84939 l 0.0685,-14.239125 1.8585,-0.589209 c 4.05245,-1.284767 5.99962,-2.739484 5.99962,-4.482263 0,-2.543628 -2.10516,-3.329709 -4.83869,-1.8068 -4.42676,2.466248 -12.3818,2.88289 -20.73919,1.086208 -3.45857,-0.743527 -4.90211,-0.07182 -4.90211,2.28103 0,1.430338 1.04173,2.334812 3.27614,2.844485 0.98854,0.225486 1.84901,0.46164 1.91215,0.524785 0.0631,0.06315 0.0825,2.445493 0.0429,5.294107 l -0.0719,5.179292 -5.15937,-2.91871 c -6.275442,-3.550089 -5.747662,-3.006713 -4.92289,-5.068323 1.02592,-2.564379 0.81815,-4.05774 -0.671742,-4.828189 -1.88591,-0.975244 -3.10817,-0.229368 -4.16673,2.542723 -1.45776,3.817492 -5.02392,8.414349 -8.52833,10.993189 -1.93532,1.42417 -2.29353,3.11215 -0.96297,4.53769 1.1503,1.23241 2.48644,1.06909 4.50819,-0.55106 l 0.99824,-0.79995 1.11843,1.05814 c 0.61513,0.58198 3.44014,3.24035 6.2778,5.90749 6.859652,6.44745 6.350002,5.83277 6.350002,7.6585 0,1.81346 -0.17647,2.02263 -2.70455,3.20566 -2.09969,0.98256 -4.946582,1.27756 -6.715602,0.69588 z"
       id="path5" /><path
       style="fill:#999fad"
       d="m 115.20789,176.16745 c 13.14479,-0.0379 34.57604,-0.0379 47.62499,1e-5 13.04896,0.0379 2.29413,0.069 -23.89961,0.069 -26.19375,-1e-5 -36.87017,-0.031 -23.72538,-0.069 z m -4.80085,-4.47121 c -0.0996,-0.0996 -0.18107,-11.88327 -0.18107,-26.18597 0,-18.39285 -0.0854,-26.19241 -0.29185,-26.64545 -0.16051,-0.3523 -2.512,-2.73111 -5.22552,-5.28624 -2.71351,-2.55512 -5.469452,-5.21001 -6.124292,-5.89974 -0.65484,-0.68973 1.488282,1.2651 4.762502,4.34407 3.27422,3.07897 6.22101,5.97457 6.54844,6.43467 0.59531,0.83655 0.59531,0.83655 0.59531,26.99117 v 26.15462 h 6.2153 6.21531 l 0.0722,-13.49378 0.0722,-13.49378 -0.004,13.55993 -0.004,13.55993 -6.23509,0.0708 c -3.42929,0.0389 -6.31656,-0.0107 -6.41614,-0.11025 z"
       id="path4" /><path
       style="fill:#6f91a0"
       d="m 127.547,171.54212 c -0.0707,-0.18459 -0.0964,-6.05062 -0.0571,-13.03562 l 0.0715,-12.7 0.0635,12.89844 0.0635,12.89843 h 6.0822 6.0822 l 0.0743,-9.85572 0.0743,-9.85573 -0.005,9.92187 -0.005,9.92188 -6.15799,0.071 c -4.78277,0.0552 -6.18671,-0.004 -6.28661,-0.26458 z"
       id="path3" /><path
       style="fill:#585c5d"
       d="m 90.550198,175.55292 c -2.33343,-1.83547 -0.62256,-3.51169 3.76114,-3.68496 l 3.34693,-0.13229 v -19.97604 -19.97605 l -1.78925,-0.43359 c -2.35907,-0.57167 -4.24476,-1.51864 -5.98923,-3.0077 -0.9392,-0.80168 -1.57022,-1.15893 -1.85045,-1.04762 -5.494714,2.1826 -10.72488,-0.64308 -11.82223,-6.38714 -0.138514,-0.72505 -0.394229,-0.92613 -2.170325,-1.70667 -12.174763,-5.35042 -11.014397,-25.749221 1.793358,-31.526602 0.945886,-0.426674 1.898386,-0.869249 2.116667,-0.983498 0.228784,-0.119747 0.527737,-0.924095 0.70585,-1.899119 1.35696,-7.428269 6.00164,-11.434479 13.96662,-12.046715 2.24106,-0.172262 2.35038,-0.210592 2.76019,-0.967781 3.73258,-6.896516 11.030352,-9.586019 19.102062,-7.039826 1.74201,0.549512 1.74201,0.549512 4.06898,-0.271805 10.26746,-3.623963 17.18641,-1.370735 22.23484,7.241003 0.2409,0.410944 0.44642,0.364932 2.29653,-0.514167 4.87098,-2.314496 9.0852,-1.745599 13.01295,1.756678 1.55115,1.383123 1.55115,1.383123 4.23334,1.324288 12.79176,-0.280595 19.96035,15.02368 11.81669,25.227561 -0.91213,1.142883 -0.90705,1.006443 -0.16248,4.369163 0.39448,1.78164 0.58237,2.13305 1.83897,3.43958 0.76979,0.80037 5.56771,5.74504 10.66206,10.98818 9.99616,10.28809 10.2887,10.62686 10.03832,11.62445 -0.42541,1.69495 -0.59373,1.72904 -8.53748,1.72904 -7.22111,0 -7.22111,0 -7.3652,0.59532 -0.0792,0.32742 -0.11128,9.3464 -0.0712,20.04218 l 0.0729,19.44688 4.32346,0.13229 c 5.28608,0.16174 6.88402,1.38428 4.6844,3.5839 -0.94828,0.94828 -95.875722,1.04711 -97.078422,0.10106 z m 96.884212,-0.25569 c 2.11696,-1.97224 0.28865,-3.16469 -4.85227,-3.16469 -3.43719,0 -4.06092,-0.0622 -4.19765,-0.41851 -0.3318,-0.86466 -0.17961,-39.67331 0.1569,-40.00982 0.23117,-0.23118 2.24869,-0.3175 7.42036,-0.3175 7.10286,0 7.10286,0 7.77763,-0.67477 1.30687,-1.30687 2.21883,-0.19736 -13.14628,-15.99398 l -8.36406,-8.59896 -0.57628,-2.51354 c -0.72624,-3.16759 -0.74508,-2.94449 0.37238,-4.408444 7.9078,-10.35978 0.82449,-24.959747 -11.96693,-24.665997 -2.72009,0.06247 -2.72009,0.06247 -4.1812,-1.319392 -3.67211,-3.472928 -8.53223,-4.072376 -13.07385,-1.612529 -1.9499,1.056109 -1.98515,1.04453 -3.0627,-1.006059 -3.6902,-7.02246 -11.4716,-9.167728 -21.1743,-5.837583 -2.37544,0.815295 -2.37544,0.815295 -4.10104,0.26296 -7.83517,-2.507902 -14.631612,-0.150444 -18.575442,6.4432 -0.82891,1.385839 -0.82891,1.385839 -3.35275,1.5711 -7.56857,0.555569 -12.082866,4.376575 -13.51232,11.437156 -0.468542,2.314297 -0.468542,2.314297 -2.21917,3.031769 -12.95317,5.308687 -15.065118,25.715479 -3.224255,31.154509 1.018646,0.46791 2.026697,0.94456 2.240113,1.05922 0.213416,0.11466 0.580915,0.85286 0.816665,1.64043 1.580882,5.28128 5.404614,7.45762 10.440087,5.94217 1.4171,-0.42648 1.37015,-0.44092 3.03959,0.9349 1.5993,1.31802 3.62326,2.29702 5.91179,2.85957 l 1.89342,0.46542 v 20.2212 20.22119 l -3.52754,0.13229 c -3.92804,0.14731 -4.27767,0.31241 -4.27767,2.01994 0,1.82109 -3.97835,1.68423 48.956902,1.68423 47.71939,0 47.78156,-7e-4 48.35987,-0.53948 z m -85.49871,-3.34108 c -0.24215,-0.24214 -0.21642,-40.37061 0.0261,-40.7059 0.39182,-0.54171 3.61864,-1.6745 3.9647,-1.39182 0.47188,0.38546 0.48484,41.485 0.0132,41.95661 -0.33382,0.33382 -3.69294,0.4522 -4.00403,0.14111 z m 3.89634,-0.50671 c 0.34543,-0.90017 0.17857,-41.13078 -0.17115,-41.26498 -0.18247,-0.07 -1.04567,0.14922 -1.91823,0.48719 l -1.58648,0.61449 -0.0684,19.96018 c -0.0376,10.9781 -0.0116,20.10901 0.0578,20.29091 0.20047,0.52512 3.48122,0.447 3.68643,-0.0878 z m 4.31026,0.51123 c -0.0995,-0.0995 -0.18253,-11.85895 -0.18452,-26.13212 -0.002,-14.27317 -0.0741,-26.21405 -0.16021,-26.53529 -0.0861,-0.32124 -3.38849,-3.63428 -7.33858,-7.36232 -8.758002,-8.26567 -8.088052,-7.3955 -6.883852,-8.94114 1.27245,-1.63325 0.66612,-1.83411 9.443832,3.12848 10.90128,6.16318 10.23409,6.44155 10.23409,-4.26985 0,-4.103059 0.0723,-7.648441 0.1606,-7.878624 0.16532,-0.430835 6.6046,-0.648701 7.62297,-0.257916 0.37605,0.144306 0.41851,2.019632 0.41851,18.48515 0,25.51966 -1.04516,24.92308 12.52806,7.15113 9.09333,-11.90625 9.09333,-11.90625 10.07934,-11.87406 2.32336,0.0759 2.36329,-0.0152 -4.41211,10.05951 -3.4114,5.07259 -8.89984,13.23645 -12.19653,18.14191 l -5.99399,8.91903 -0.0685,13.70285 -0.0685,13.70284 -6.49982,0.0707 c -3.57491,0.0389 -6.58124,-0.0107 -6.68073,-0.11024 z m 13.04826,-13.98334 0.13229,-13.75833 4.60892,-6.87917 c 2.5349,-3.78354 7.93139,-11.80047 11.99219,-17.81539 7.4558,-11.04366 7.69028,-11.47489 6.4137,-11.79529 -0.97693,-0.24519 -0.41267,-0.90704 -10.47767,12.28979 -9.42999,12.36423 -9.75426,12.7166 -11.19742,12.16791 -1.53031,-0.58182 -1.47201,0.20141 -1.47201,-19.77672 V 94.080458 l -1.91823,-0.0019 c -1.05503,-0.001 -2.7219,-0.07778 -3.70417,-0.170552 l -1.78594,-0.168671 -10e-4,7.248155 c -0.002,12.11754 0.53305,11.86099 -11.08701,5.31144 l -7.781202,-4.3858 -0.88391,1.02253 c -1.2395,1.43389 -1.57705,0.97899 6.061412,8.16856 3.81992,3.59544 7.2132,6.90903 7.54062,7.36353 0.59531,0.82636 0.59531,0.82636 0.59531,26.93689 0,14.36078 0.0815,26.192 0.18107,26.29158 0.0996,0.0996 2.98685,0.1492 6.41614,0.11025 l 6.23509,-0.0708 z m 4.28625,13.83771 c -0.23824,-0.23824 -0.3175,-3.52865 -0.3175,-13.18019 v -12.8627 l 4.52139,-6.7297 c 2.48676,-3.70133 4.70859,-6.93885 4.93739,-7.19448 0.39046,-0.43624 1.56289,-0.46062 19.09267,-0.39688 l 18.67667,0.0679 v 20.24063 20.24062 h -8.59896 -8.59896 l -0.13466,-9.92188 c -0.1729,-12.73982 0.84451,-11.43636 -8.83881,-11.32393 -8.84158,0.10265 -7.82757,-1.32696 -7.82757,11.03575 0,7.19738 -0.0821,9.78944 -0.3175,10.02485 -0.4504,0.4504 -12.14376,0.4504 -12.59416,0 z m 12.57874,-9.86896 c 0.0836,-12.79835 -0.88342,-11.5689 9.01066,-11.45602 9.15718,0.10448 8.08835,-1.35392 8.2556,11.26458 l 0.13229,9.98103 h 8.33437 8.33438 v -19.97604 -19.97605 l -18.34264,-0.068 c -10.08846,-0.0374 -18.5089,0.0251 -18.7121,0.1388 -0.2032,0.11371 -2.42651,3.23992 -4.94069,6.94713 l -4.57124,6.74037 -0.0736,12.82054 c -0.0405,7.0513 -0.0136,12.97686 0.0597,13.16792 0.10586,0.27586 1.4009,0.33274 6.29129,0.27632 l 6.15799,-0.071 z m 4.21348,10.01007 c -0.42797,-0.42797 -0.19414,-17.22268 0.24212,-17.39009 0.9992,-0.38343 7.99952,-0.17144 8.42613,0.25517 0.50393,0.50393 0.6338,15.88039 0.14188,16.79954 -0.27778,0.51905 -8.3203,0.82521 -8.81013,0.33538 z m 8.49244,-8.62774 0.0699,-8.40726 -4.17091,0.0729 -4.17092,0.0729 -0.0701,8.06705 c -0.0386,4.43689 -0.0113,8.22023 0.0605,8.40745 0.10032,0.26142 1.06796,0.32343 4.17116,0.26731 l 4.04055,-0.0731 z M 95.753218,127.18986 c -1.69678,-0.58629 -2.99482,-1.47059 -4.70034,-3.20215 -1.50079,-1.5237 -1.79741,-1.57409 -3.97795,-0.67585 -4.096124,1.68736 -7.276037,-0.50405 -7.276037,-5.01421 0,-0.9459 -0.934532,-1.91079 -2.045877,-2.11233 -10.012355,-1.81575 -11.246529,-18.051757 -1.83008,-24.075386 1.352013,-0.864873 4.21005,-1.998226 5.039032,-1.998226 0.802015,0 1.4826,-1.319101 1.485899,-2.879952 0.01446,-6.843112 4.863353,-10.86484 12.721233,-10.551137 2.09409,0.0836 2.27818,-0.04208 3.40031,-2.321464 2.988562,-6.070612 8.400972,-7.985777 15.572822,-5.510388 2.18234,0.753243 2.06394,0.764289 5.74104,-0.535627 8.96486,-3.169233 14.9901,-0.934629 17.71171,6.568804 1.16231,3.204495 2.03077,3.520242 4.47086,1.625475 4.80652,-3.732341 8.11251,-3.684919 11.90716,0.170799 2.0003,2.032491 2.11005,2.102621 3.04271,1.944188 12.55494,-2.132752 19.41061,9.981363 11.00485,19.445799 -1.3989,1.575088 -1.39331,1.451788 -0.25121,5.537255 1.30973,4.68507 0.65509,9.24569 -1.64119,11.43353 -3.49745,3.33229 -9.73029,4.5871 -14.15811,2.85035 -1.73352,-0.67995 -2.58868,-0.40705 -3.16438,1.0098 -1.76179,4.3359 -4.65976,7.18232 -7.32358,7.19332 -0.99376,0.004 -0.75106,-0.42888 5.08256,-9.06723 5.8222,-8.62143 5.61225,-8.39165 7.66994,-8.39475 4.67251,-0.007 7.66487,-1.97344 6.0458,-3.97291 -0.59772,-0.73815 -1.36583,-0.76339 -4.26711,-0.14024 -4.98814,1.07137 -9.37233,-0.27743 -13.15563,-4.04734 -1.56564,-1.560099 -2.38806,-1.732202 -3.40724,-0.713017 -1.04919,1.049187 -0.73157,2.116567 1.18084,3.968327 0.59408,0.57524 1.07946,1.23008 1.07863,1.45521 -0.002,0.4441 -13.34756,18.07311 -13.80453,18.2348 -0.65919,0.23325 -0.73815,-1.3696 -0.74199,-15.06293 -0.005,-16.503673 -0.26771,-14.987543 2.77407,-15.98706 4.0536,-1.331994 5.84893,-2.883514 5.13917,-4.441264 -0.61656,-1.353209 -1.47263,-1.398983 -3.96515,-0.212021 -5.19148,2.472234 -12.12202,2.825119 -20.6752,1.052726 -3.27619,-0.678893 -4.16576,-0.358353 -4.17497,1.504377 -0.006,1.116899 0.59866,1.576641 2.77407,2.110849 2.69589,0.662022 2.51354,0.171607 2.51354,6.759951 0,5.258282 -0.041,5.788432 -0.44718,5.788432 -0.7627,0 -11.988352,-6.44037 -11.987012,-6.877175 6.7e-4,-0.219374 0.2955,-1.113237 0.65518,-1.986362 1.102152,-2.675521 0.661022,-4.365625 -1.13945,-4.365625 -0.99715,0 -1.67588,0.808818 -2.44232,2.910416 -1.22367,3.355339 -4.49235,7.421426 -9.06297,11.273906 -2.64482,2.22926 0.20978,4.65004 2.92967,2.48443 1.82135,-1.45018 1.27407,-1.78457 8.92637,5.45394 7.370452,6.97189 7.434312,7.05544 7.208382,9.43155 -0.29783,3.13229 -6.257712,5.38025 -10.436342,3.93641 z m 6.006092,-0.48963 c 3.28111,-1.0837 3.96875,-1.77688 3.96875,-4.0008 v -2.03386 l -5.994772,-5.68579 c -3.29712,-3.12718 -6.44891,-6.07913 -7.00398,-6.55989 l -1.00921,-0.87412 -1.42058,1.07255 c -1.69935,1.28302 -2.78401,1.40489 -3.76578,0.42312 -1.3422,-1.34219 -1.02333,-2.00503 2.64301,-5.49414 3.64369,-3.46756 5.36038,-5.790252 6.65785,-9.00814 1.04025,-2.579968 1.49774,-3.104535 2.70752,-3.104535 2.155802,0 2.706832,1.847322 1.471832,4.934338 -0.377872,0.944515 -0.645762,1.758072 -0.595312,1.807905 0.466,0.460368 11.453332,6.445952 11.630922,6.336192 0.38788,-0.23973 0.2966,-10.848845 -0.096,-11.15435 -0.1819,-0.141556 -1.09117,-0.413987 -2.02059,-0.605402 -2.95245,-0.608059 -4.03641,-2.379996 -2.43534,-3.981059 0.9543,-0.954302 0.85077,-0.954562 5.97728,0.015 6.94131,1.312787 13.90203,0.811797 18.34781,-1.320561 2.63712,-1.264863 3.02334,-1.292248 4.02984,-0.285747 1.87479,1.874795 0.35371,3.677197 -4.59408,5.443727 l -2.43773,0.870354 -0.0684,14.735298 c -0.0413,8.8892 0.0282,14.70002 0.17505,14.64637 0.20999,-0.0767 12.76553,-16.40457 13.36331,-17.37832 0.14907,-0.24282 -0.16027,-0.74766 -0.97272,-1.5875 -1.97117,-2.0376 -2.28569,-3.265 -1.13221,-4.418479 1.11928,-1.119281 2.33408,-0.908394 3.80821,0.661099 3.51909,3.74675 8.84557,5.22593 13.96909,3.87927 2.71144,-0.71268 4.06285,-0.13053 4.06285,1.75015 0,1.90026 -1.33204,2.58064 -6.24843,3.19153 l -2.61511,0.32495 -5.34444,7.93481 c -5.71917,8.49116 -5.82817,8.69038 -4.55514,8.32528 2.32857,-0.66782 4.39998,-2.57064 5.45237,-5.00861 1.57349,-3.64513 1.86911,-3.83303 4.62817,-2.94181 10.76961,3.47877 18.4599,-4.46351 14.75336,-15.23679 -0.83618,-2.430392 -0.72533,-3.008478 0.93339,-4.867442 7.80944,-8.7522 1.22867,-20.312199 -10.62362,-18.661796 -1.63508,0.227681 -1.63508,0.227681 -3.53012,-1.779875 -3.56784,-3.779685 -7.32276,-3.827208 -11.77389,-0.149014 -2.34529,1.938041 -3.76628,1.357908 -4.88135,-1.992864 -2.30121,-6.915157 -8.81407,-9.379598 -16.94102,-6.410423 -3.80157,1.3889 -4.08845,1.411602 -6.66468,0.527407 -6.52855,-2.240681 -11.9214,-0.184838 -14.868992,5.668309 -1.18326,2.349634 -1.35708,2.439839 -4.70883,2.443696 -7.35445,0.0085 -11.32833,3.770839 -11.32833,10.725396 0,1.556656 -0.725369,2.385372 -2.402777,2.745112 -12.316403,2.641396 -14.408567,22.652964 -2.632355,25.178514 1.667195,0.35754 2.243701,1.05892 2.618269,3.18538 0.775671,4.40356 2.731262,5.62248 6.517903,4.06261 2.44569,-1.00747 2.85894,-0.92062 4.87361,1.02431 3.28159,3.16799 6.16483,3.92023 10.075352,2.62864 z m 46.43234,0.71445 c -0.091,-0.14733 0.3735,-0.88408 1.03233,-1.63723 0.65884,-0.75315 1.46932,-1.88102 1.80107,-2.50637 0.71653,-1.35067 0.89365,-1.44047 2.22976,-1.13048 7.69424,1.78516 15.63629,-2.32105 18.57844,-9.60546 0.16163,-0.40018 0.40388,-0.7276 0.53834,-0.7276 0.42366,0 14.71166,14.83597 14.80039,15.368 0.0975,0.58446 -38.62011,0.82198 -38.98033,0.23914 z m 38.76349,-0.24661 c 0,-0.3456 -14.07799,-14.83143 -14.41351,-14.83107 -0.14898,1.6e-4 -0.68414,0.91945 -1.18925,2.04286 -2.56481,5.70437 -9.68785,9.03346 -17.52018,8.18839 -2.0344,-0.2195 -2.0344,-0.2195 -2.55254,0.79375 -0.28497,0.55729 -1.0066,1.5673 -1.60362,2.24448 -0.59702,0.67717 -1.08548,1.36178 -1.08548,1.52135 0,0.20778 5.4445,0.29013 19.18229,0.29013 11.85985,0 19.18229,-0.0954 19.18229,-0.24989 z"
       id="path2" /><path
       style="fill:#040505"
       d="m 90.705678,175.42483 c -0.68872,-0.4824 -0.79836,-1.84481 -0.21297,-2.64641 0.32931,-0.45094 0.80534,-0.52972 3.9026,-0.64588 l 3.52754,-0.13229 v -20.22119 -20.2212 l -1.89342,-0.46542 c -2.28853,-0.56255 -4.31249,-1.54155 -5.91179,-2.85957 -1.66944,-1.37582 -1.62249,-1.36138 -3.03959,-0.9349 -5.035473,1.51545 -8.859205,-0.66089 -10.440087,-5.94217 -0.23575,-0.78757 -0.603249,-1.52577 -0.816665,-1.64043 -0.213416,-0.11466 -1.221467,-0.59131 -2.240113,-1.05922 -11.840863,-5.43903 -9.728915,-25.845822 3.224255,-31.154509 1.750628,-0.717472 1.750628,-0.717472 2.21917,-3.031769 1.429454,-7.060581 5.94375,-10.881587 13.51232,-11.437156 2.52384,-0.185261 2.52384,-0.185261 3.35275,-1.5711 3.94383,-6.593644 10.740272,-8.951102 18.575442,-6.4432 1.7256,0.552335 1.7256,0.552335 4.10104,-0.26296 9.7027,-3.330145 17.4841,-1.184877 21.1743,5.837583 1.07755,2.050589 1.1128,2.062168 3.0627,1.006059 4.54162,-2.459847 9.40174,-1.860399 13.07385,1.612529 1.46111,1.381858 1.46111,1.381858 4.1812,1.319392 12.79142,-0.29375 19.87473,14.306217 11.96693,24.665997 -1.11746,1.463954 -1.09862,1.240854 -0.37238,4.408444 l 0.57628,2.51354 8.36406,8.59896 c 15.36511,15.79662 14.45315,14.68711 13.14628,15.99398 -0.67477,0.67477 -0.67477,0.67477 -7.77763,0.67477 -5.17167,0 -7.18919,0.0863 -7.42036,0.3175 -0.33651,0.33651 -0.4887,39.14516 -0.1569,40.00982 0.13673,0.35632 0.76046,0.41851 4.19765,0.41851 5.14092,0 6.96923,1.19245 4.85227,3.16469 -0.79662,0.74217 -95.672632,0.86732 -96.728732,0.1276 z m 15.234052,-3.60979 c 0.47161,-0.47161 0.45865,-41.57115 -0.0132,-41.95661 -0.34606,-0.28268 -3.57288,0.85011 -3.9647,1.39182 -0.24252,0.33529 -0.26825,40.46376 -0.0261,40.7059 0.31109,0.31109 3.67021,0.19271 4.00403,-0.14111 z m 17.45165,-13.51763 0.0685,-13.70285 5.99399,-8.91903 c 3.29669,-4.90546 8.78513,-13.06932 12.19653,-18.14191 6.7754,-10.07468 6.73547,-9.98364 4.41211,-10.05951 -0.98601,-0.0322 -0.98601,-0.0322 -10.07934,11.87406 -9.65486,12.64149 -9.592,12.56771 -10.70734,12.56771 -1.89117,0 -1.82072,0.76302 -1.82072,-19.71884 0,-16.465518 -0.0425,-18.340844 -0.41851,-18.48515 -1.01837,-0.390785 -7.45765,-0.172919 -7.62297,0.257916 -0.0883,0.230183 -0.1606,3.775565 -0.1606,7.878624 0,10.7114 0.66719,10.43303 -10.23409,4.26985 -8.777712,-4.96259 -8.171382,-4.76173 -9.443832,-3.12848 -1.2042,1.54564 -1.87415,0.67547 6.883852,8.94114 3.95009,3.72804 7.25245,7.04108 7.33858,7.36232 0.0861,0.32124 0.15822,12.26212 0.16021,26.53529 0.002,14.27317 0.085,26.03262 0.18452,26.13212 0.0995,0.0995 3.10582,0.14911 6.68073,0.11024 l 6.49982,-0.0707 z m 16.67959,13.51763 c 0.23541,-0.23541 0.3175,-2.82747 0.3175,-10.02485 0,-12.36271 -1.01401,-10.9331 7.82757,-11.03575 9.68332,-0.11243 8.66591,-1.41589 8.83881,11.32393 l 0.13466,9.92188 h 8.59896 8.59896 V 151.75963 131.519 l -18.67667,-0.0679 c -17.52978,-0.0637 -18.70221,-0.0394 -19.09267,0.39688 -0.2288,0.25563 -2.45063,3.49315 -4.93739,7.19448 l -4.52139,6.7297 v 12.8627 c 0,9.65154 0.0793,12.94195 0.3175,13.18019 0.4504,0.4504 12.14376,0.4504 12.59416,0 z m 13.00819,-0.19427 c 0.49192,-0.91915 0.36205,-16.29561 -0.14188,-16.79954 -0.42661,-0.42661 -7.42693,-0.6386 -8.42613,-0.25517 -0.43626,0.16741 -0.67009,16.96212 -0.24212,17.39009 0.48983,0.48983 8.53235,0.18367 8.81013,-0.33538 z M 101.0886,127.27696 c 4.21107,-1.09684 5.81886,-3.06479 4.99623,-6.11542 -0.24288,-0.9007 -13.646852,-13.84443 -14.341812,-13.84937 -0.19745,-10e-4 -0.95714,0.4737 -1.68821,1.05579 -2.71989,2.16561 -5.57449,-0.25517 -2.92967,-2.48443 4.57062,-3.85248 7.8393,-7.918567 9.06297,-11.273906 0.76644,-2.101598 1.44517,-2.910416 2.44232,-2.910416 1.800472,0 2.241602,1.690104 1.13945,4.365625 -0.35968,0.873125 -0.65451,1.766988 -0.65518,1.986362 -0.001,0.436805 11.224312,6.877175 11.987012,6.877175 0.40623,0 0.44718,-0.53015 0.44718,-5.788432 0,-6.588344 0.18235,-6.097929 -2.51354,-6.759951 -2.17541,-0.534208 -2.7796,-0.99395 -2.77407,-2.110849 0.009,-1.86273 0.89878,-2.18327 4.17497,-1.504377 8.55318,1.772393 15.48372,1.419508 20.6752,-1.052726 2.49252,-1.186962 3.34859,-1.141188 3.96515,0.212021 0.70976,1.55775 -1.08557,3.10927 -5.13917,4.441264 -3.04178,0.999517 -2.7787,-0.516613 -2.77407,15.98706 0.004,13.69333 0.0828,15.29618 0.74199,15.06293 0.45697,-0.16169 13.80289,-17.7907 13.80453,-18.2348 8.3e-4,-0.22513 -0.48455,-0.87997 -1.07863,-1.45521 -1.91241,-1.85176 -2.23003,-2.91914 -1.18084,-3.968327 1.01918,-1.019185 1.8416,-0.847082 3.40724,0.713017 3.7833,3.76991 8.16749,5.11871 13.15563,4.04734 2.90128,-0.62315 3.66939,-0.59791 4.26711,0.14024 1.61907,1.99947 -1.37329,3.96585 -6.0458,3.97291 -2.05769,0.003 -1.84774,-0.22668 -7.66994,8.39475 -5.83362,8.63835 -6.07632,9.07133 -5.08256,9.06723 2.66382,-0.011 5.56179,-2.85742 7.32358,-7.19332 0.5757,-1.41685 1.43086,-1.68975 3.16438,-1.0098 4.42782,1.73675 10.66066,0.48194 14.15811,-2.85035 2.29628,-2.18784 2.95092,-6.74847 1.64119,-11.43353 -1.1421,-4.085467 -1.14769,-3.962167 0.25121,-5.537255 4.40079,-4.955056 4.78243,-10.565137 1.06248,-15.618332 -2.78249,-3.779743 -6.11885,-4.837957 -12.06733,-3.827467 -0.93266,0.158433 -1.04241,0.0883 -3.04271,-1.944188 -3.79465,-3.855718 -7.10064,-3.90314 -11.90716,-0.170799 -2.44009,1.894767 -3.30855,1.57902 -4.47086,-1.625475 -2.72161,-7.503433 -8.74685,-9.738037 -17.71171,-6.568804 -3.6771,1.299916 -3.5587,1.28887 -5.74104,0.535627 -7.17185,-2.475389 -12.58426,-0.560224 -15.572822,5.510388 -1.12213,2.279382 -1.30622,2.405065 -3.40031,2.321464 -7.85788,-0.313703 -12.706769,3.708025 -12.721233,10.551137 -0.0033,1.560851 -0.683884,2.879952 -1.485899,2.879952 -0.828982,0 -3.687019,1.133353 -5.039032,1.998226 -9.416449,6.023629 -8.182275,22.259636 1.83008,24.075386 1.111345,0.20154 2.045877,1.16643 2.045877,2.11233 0,4.51016 3.179913,6.70157 7.276037,5.01421 2.18054,-0.89824 2.47716,-0.84785 3.97795,0.67585 3.26573,3.31559 6.21873,4.28345 10.035722,3.28925 z m 86.08338,-0.10142 c -0.0887,-0.53203 -14.37673,-15.368 -14.80039,-15.368 -0.13446,0 -0.37671,0.32742 -0.53834,0.7276 -2.94215,7.28441 -10.8842,11.39062 -18.57844,9.60546 -1.33611,-0.30999 -1.51323,-0.22019 -2.22976,1.13048 -0.33175,0.62535 -1.14223,1.75322 -1.80107,2.50637 -0.65883,0.75315 -1.12338,1.4899 -1.03233,1.63723 0.36022,0.58284 39.07779,0.34532 38.98033,-0.23914 z"
       id="path1" /></g></svg>
